<svg xmlns="http://www.w3.org/2000/svg" viewBox="0 0 29 29" shape-rendering="crispEdges"><path fill="#0A1022" d="M0,0h1v1h-1zM1,0h1v1h-1zM2,0h1v1h-1zM3,0h1v1h-1zM4,0h1v1h-1zM5,0h1v1h-1zM6,0h1v1h-1zM8,0h1v1h-1zM10,0h1v1h-1zM11,0h1v1h-1zM12,0h1v1h-1zM14,0h1v1h-1zM15,0h1v1h-1zM17,0h1v1h-1zM18,0h1v1h-1zM22,0h1v1h-1zM23,0h1v1h-1zM24,0h1v1h-1zM25,0h1v1h-1zM26,0h1v1h-1zM27,0h1v1h-1zM28,0h1v1h-1zM0,1h1v1h-1zM6,1h1v1h-1zM12,1h1v1h-1zM16,1h1v1h-1zM19,1h1v1h-1zM22,1h1v1h-1zM28,1h1v1h-1zM0,2h1v1h-1zM2,2h1v1h-1zM3,2h1v1h-1zM4,2h1v1h-1zM6,2h1v1h-1zM9,2h1v1h-1zM10,2h1v1h-1zM11,2h1v1h-1zM14,2h1v1h-1zM15,2h1v1h-1zM17,2h1v1h-1zM19,2h1v1h-1zM20,2h1v1h-1zM22,2h1v1h-1zM24,2h1v1h-1zM25,2h1v1h-1zM26,2h1v1h-1zM28,2h1v1h-1zM0,3h1v1h-1zM2,3h1v1h-1zM3,3h1v1h-1zM4,3h1v1h-1zM6,3h1v1h-1zM8,3h1v1h-1zM9,3h1v1h-1zM10,3h1v1h-1zM16,3h1v1h-1zM18,3h1v1h-1zM19,3h1v1h-1zM22,3h1v1h-1zM24,3h1v1h-1zM25,3h1v1h-1zM26,3h1v1h-1zM28,3h1v1h-1zM0,4h1v1h-1zM2,4h1v1h-1zM3,4h1v1h-1zM4,4h1v1h-1zM6,4h1v1h-1zM8,4h1v1h-1zM10,4h1v1h-1zM12,4h1v1h-1zM14,4h1v1h-1zM15,4h1v1h-1zM16,4h1v1h-1zM22,4h1v1h-1zM24,4h1v1h-1zM25,4h1v1h-1zM26,4h1v1h-1zM28,4h1v1h-1zM0,5h1v1h-1zM6,5h1v1h-1zM8,5h1v1h-1zM10,5h1v1h-1zM16,5h1v1h-1zM19,5h1v1h-1zM22,5h1v1h-1zM28,5h1v1h-1zM0,6h1v1h-1zM1,6h1v1h-1zM2,6h1v1h-1zM3,6h1v1h-1zM4,6h1v1h-1zM5,6h1v1h-1zM6,6h1v1h-1zM8,6h1v1h-1zM10,6h1v1h-1zM12,6h1v1h-1zM14,6h1v1h-1zM16,6h1v1h-1zM18,6h1v1h-1zM20,6h1v1h-1zM22,6h1v1h-1zM23,6h1v1h-1zM24,6h1v1h-1zM25,6h1v1h-1zM26,6h1v1h-1zM27,6h1v1h-1zM28,6h1v1h-1zM8,7h1v1h-1zM9,7h1v1h-1zM13,7h1v1h-1zM17,7h1v1h-1zM18,7h1v1h-1zM19,7h1v1h-1zM0,8h1v1h-1zM4,8h1v1h-1zM6,8h1v1h-1zM7,8h1v1h-1zM8,8h1v1h-1zM10,8h1v1h-1zM11,8h1v1h-1zM13,8h1v1h-1zM15,8h1v1h-1zM17,8h1v1h-1zM19,8h1v1h-1zM21,8h1v1h-1zM22,8h1v1h-1zM23,8h1v1h-1zM24,8h1v1h-1zM25,8h1v1h-1zM28,8h1v1h-1zM1,9h1v1h-1zM2,9h1v1h-1zM3,9h1v1h-1zM4,9h1v1h-1zM5,9h1v1h-1zM8,9h1v1h-1zM9,9h1v1h-1zM10,9h1v1h-1zM11,9h1v1h-1zM13,9h1v1h-1zM14,9h1v1h-1zM15,9h1v1h-1zM16,9h1v1h-1zM22,9h1v1h-1zM23,9h1v1h-1zM24,9h1v1h-1zM25,9h1v1h-1zM26,9h1v1h-1zM27,9h1v1h-1zM28,9h1v1h-1zM1,10h1v1h-1zM3,10h1v1h-1zM4,10h1v1h-1zM6,10h1v1h-1zM7,10h1v1h-1zM8,10h1v1h-1zM10,10h1v1h-1zM12,10h1v1h-1zM15,10h1v1h-1zM17,10h1v1h-1zM18,10h1v1h-1zM20,10h1v1h-1zM22,10h1v1h-1zM23,10h1v1h-1zM24,10h1v1h-1zM28,10h1v1h-1zM0,11h1v1h-1zM3,11h1v1h-1zM5,11h1v1h-1zM8,11h1v1h-1zM11,11h1v1h-1zM14,11h1v1h-1zM16,11h1v1h-1zM17,11h1v1h-1zM20,11h1v1h-1zM21,11h1v1h-1zM22,11h1v1h-1zM24,11h1v1h-1zM25,11h1v1h-1zM27,11h1v1h-1zM28,11h1v1h-1zM0,12h1v1h-1zM1,12h1v1h-1zM3,12h1v1h-1zM5,12h1v1h-1zM6,12h1v1h-1zM7,12h1v1h-1zM8,12h1v1h-1zM9,12h1v1h-1zM12,12h1v1h-1zM13,12h1v1h-1zM14,12h1v1h-1zM17,12h1v1h-1zM19,12h1v1h-1zM20,12h1v1h-1zM21,12h1v1h-1zM27,12h1v1h-1zM0,13h1v1h-1zM2,13h1v1h-1zM3,13h1v1h-1zM5,13h1v1h-1zM7,13h1v1h-1zM9,13h1v1h-1zM12,13h1v1h-1zM15,13h1v1h-1zM16,13h1v1h-1zM17,13h1v1h-1zM18,13h1v1h-1zM22,13h1v1h-1zM23,13h1v1h-1zM24,13h1v1h-1zM25,13h1v1h-1zM26,13h1v1h-1zM27,13h1v1h-1zM28,13h1v1h-1zM0,14h1v1h-1zM2,14h1v1h-1zM4,14h1v1h-1zM5,14h1v1h-1zM6,14h1v1h-1zM7,14h1v1h-1zM10,14h1v1h-1zM11,14h1v1h-1zM13,14h1v1h-1zM14,14h1v1h-1zM15,14h1v1h-1zM16,14h1v1h-1zM17,14h1v1h-1zM22,14h1v1h-1zM25,14h1v1h-1zM26,14h1v1h-1zM28,14h1v1h-1zM0,15h1v1h-1zM1,15h1v1h-1zM5,15h1v1h-1zM7,15h1v1h-1zM10,15h1v1h-1zM11,15h1v1h-1zM12,15h1v1h-1zM13,15h1v1h-1zM17,15h1v1h-1zM18,15h1v1h-1zM19,15h1v1h-1zM22,15h1v1h-1zM27,15h1v1h-1zM28,15h1v1h-1zM1,16h1v1h-1zM3,16h1v1h-1zM4,16h1v1h-1zM5,16h1v1h-1zM6,16h1v1h-1zM9,16h1v1h-1zM11,16h1v1h-1zM12,16h1v1h-1zM13,16h1v1h-1zM15,16h1v1h-1zM17,16h1v1h-1zM19,16h1v1h-1zM21,16h1v1h-1zM23,16h1v1h-1zM27,16h1v1h-1zM0,17h1v1h-1zM2,17h1v1h-1zM5,17h1v1h-1zM8,17h1v1h-1zM9,17h1v1h-1zM10,17h1v1h-1zM12,17h1v1h-1zM13,17h1v1h-1zM14,17h1v1h-1zM15,17h1v1h-1zM17,17h1v1h-1zM18,17h1v1h-1zM21,17h1v1h-1zM22,17h1v1h-1zM23,17h1v1h-1zM24,17h1v1h-1zM25,17h1v1h-1zM27,17h1v1h-1zM28,17h1v1h-1zM5,18h1v1h-1zM6,18h1v1h-1zM9,18h1v1h-1zM11,18h1v1h-1zM12,18h1v1h-1zM15,18h1v1h-1zM18,18h1v1h-1zM20,18h1v1h-1zM21,18h1v1h-1zM22,18h1v1h-1zM24,18h1v1h-1zM26,18h1v1h-1zM28,18h1v1h-1zM2,19h1v1h-1zM3,19h1v1h-1zM4,19h1v1h-1zM5,19h1v1h-1zM8,19h1v1h-1zM9,19h1v1h-1zM10,19h1v1h-1zM11,19h1v1h-1zM14,19h1v1h-1zM16,19h1v1h-1zM17,19h1v1h-1zM18,19h1v1h-1zM21,19h1v1h-1zM24,19h1v1h-1zM27,19h1v1h-1zM28,19h1v1h-1zM0,20h1v1h-1zM1,20h1v1h-1zM4,20h1v1h-1zM6,20h1v1h-1zM7,20h1v1h-1zM12,20h1v1h-1zM13,20h1v1h-1zM14,20h1v1h-1zM16,20h1v1h-1zM17,20h1v1h-1zM20,20h1v1h-1zM21,20h1v1h-1zM22,20h1v1h-1zM23,20h1v1h-1zM24,20h1v1h-1zM25,20h1v1h-1zM28,20h1v1h-1zM8,21h1v1h-1zM9,21h1v1h-1zM10,21h1v1h-1zM15,21h1v1h-1zM16,21h1v1h-1zM17,21h1v1h-1zM18,21h1v1h-1zM19,21h1v1h-1zM20,21h1v1h-1zM24,21h1v1h-1zM28,21h1v1h-1zM0,22h1v1h-1zM1,22h1v1h-1zM2,22h1v1h-1zM3,22h1v1h-1zM4,22h1v1h-1zM5,22h1v1h-1zM6,22h1v1h-1zM8,22h1v1h-1zM10,22h1v1h-1zM12,22h1v1h-1zM13,22h1v1h-1zM14,22h1v1h-1zM15,22h1v1h-1zM16,22h1v1h-1zM18,22h1v1h-1zM19,22h1v1h-1zM20,22h1v1h-1zM22,22h1v1h-1zM24,22h1v1h-1zM25,22h1v1h-1zM26,22h1v1h-1zM28,22h1v1h-1zM0,23h1v1h-1zM6,23h1v1h-1zM9,23h1v1h-1zM10,23h1v1h-1zM11,23h1v1h-1zM12,23h1v1h-1zM13,23h1v1h-1zM16,23h1v1h-1zM17,23h1v1h-1zM19,23h1v1h-1zM20,23h1v1h-1zM24,23h1v1h-1zM28,23h1v1h-1zM0,24h1v1h-1zM2,24h1v1h-1zM3,24h1v1h-1zM4,24h1v1h-1zM6,24h1v1h-1zM8,24h1v1h-1zM9,24h1v1h-1zM10,24h1v1h-1zM11,24h1v1h-1zM13,24h1v1h-1zM17,24h1v1h-1zM19,24h1v1h-1zM20,24h1v1h-1zM21,24h1v1h-1zM22,24h1v1h-1zM23,24h1v1h-1zM24,24h1v1h-1zM25,24h1v1h-1zM27,24h1v1h-1zM0,25h1v1h-1zM2,25h1v1h-1zM3,25h1v1h-1zM4,25h1v1h-1zM6,25h1v1h-1zM9,25h1v1h-1zM11,25h1v1h-1zM14,25h1v1h-1zM15,25h1v1h-1zM16,25h1v1h-1zM17,25h1v1h-1zM18,25h1v1h-1zM20,25h1v1h-1zM28,25h1v1h-1zM0,26h1v1h-1zM2,26h1v1h-1zM3,26h1v1h-1zM4,26h1v1h-1zM6,26h1v1h-1zM9,26h1v1h-1zM10,26h1v1h-1zM13,26h1v1h-1zM15,26h1v1h-1zM17,26h1v1h-1zM18,26h1v1h-1zM21,26h1v1h-1zM25,26h1v1h-1zM26,26h1v1h-1zM27,26h1v1h-1zM28,26h1v1h-1zM0,27h1v1h-1zM6,27h1v1h-1zM11,27h1v1h-1zM12,27h1v1h-1zM15,27h1v1h-1zM16,27h1v1h-1zM17,27h1v1h-1zM20,27h1v1h-1zM23,27h1v1h-1zM24,27h1v1h-1zM25,27h1v1h-1zM27,27h1v1h-1zM28,27h1v1h-1zM0,28h1v1h-1zM1,28h1v1h-1zM2,28h1v1h-1zM3,28h1v1h-1zM4,28h1v1h-1zM5,28h1v1h-1zM6,28h1v1h-1zM8,28h1v1h-1zM10,28h1v1h-1zM11,28h1v1h-1zM12,28h1v1h-1zM17,28h1v1h-1zM20,28h1v1h-1zM22,28h1v1h-1zM23,28h1v1h-1zM24,28h1v1h-1zM25,28h1v1h-1zM27,28h1v1h-1z"/></svg>